<?xml version="1.0" standalone="no"?><!DOCTYPE svg PUBLIC "-//W3C//DTD SVG 1.1//EN" "http://www.w3.org/Graphics/SVG/1.1/DTD/svg11.dtd"><svg t="1626836179082" class="icon" viewBox="0 0 1024 1024" version="1.1" xmlns="http://www.w3.org/2000/svg" p-id="8616" width="128" height="128" xmlns:xlink="http://www.w3.org/1999/xlink"><defs><style type="text/css"></style></defs><path d="M904.05376 325.485714H714.61376V133.851429A132.388571 132.388571 0 0 0 585.150903 0H130.93376A132.388571 132.388571 0 0 0 0.008046 133.851429V1024h1024V447.634286a120.685714 120.685714 0 0 0-119.954286-122.148572z m-640 619.52v-161.645714a13.897143 13.897143 0 0 1 13.165714-13.897143H438.865189a13.897143 13.897143 0 0 1 13.165714 13.897143v161.645714z m263.314286 0v-161.645714A91.428571 91.428571 0 0 0 438.865189 691.2H277.219474a92.16 92.16 0 0 0-89.965714 92.16v162.377143H73.150903V133.851429a55.588571 55.588571 0 0 1 54.857143-55.588572H585.150903a55.588571 55.588571 0 0 1 54.857143 55.588572V945.737143z m419.84 0H714.61376V403.017143h189.44a43.885714 43.885714 0 0 1 43.885714 44.617143v498.102857z" p-id="8617" fill="#ffffff"></path><path d="M494.45376 241.371429H219.436617a39.497143 39.497143 0 0 0 0 78.262857h275.017143a39.497143 39.497143 0 0 0 0-78.262857z m0 212.845714H219.436617a39.497143 39.497143 0 0 0 0 78.262857h275.017143a39.497143 39.497143 0 0 0 0-78.262857z" p-id="8618" fill="#ffffff"></path></svg>