<?xml version="1.0" standalone="no"?><!DOCTYPE svg PUBLIC "-//W3C//DTD SVG 1.1//EN" "http://www.w3.org/Graphics/SVG/1.1/DTD/svg11.dtd"><svg t="1626838596020" class="icon" viewBox="0 0 1024 1024" version="1.1" xmlns="http://www.w3.org/2000/svg" p-id="8217" xmlns:xlink="http://www.w3.org/1999/xlink" width="200" height="200"><defs><style type="text/css"></style></defs><path d="M892.72 44.23h130.99v210.76h0.29v99.19H838.16v636.35l-106.48-0.07-102.11-99.7-101.89 99.7h-7.07l-101.82-99.7-101.82 99.7h-7.15L208 890.76l-102.4 99.7-105.6-1V254.28C0.4 136.46 0 96.74 0 44.23h892.72z m-154.4 97.35H105.03v690.34l102.98-80.54 105.39 103.2 105.39-103.2 105.39 103.2 105.32-103.2 108.82 106.56V141.58zM554.45 457.39v99.19H212.09v-99.19h342.36z m82.12-202.4v99.19H212.09v-99.19h424.48z m201.67-105.9l-0.07 105.9h85.63v-105.9" p-id="8218"></path></svg>