<?xml version="1.0" standalone="no"?><!DOCTYPE svg PUBLIC "-//W3C//DTD SVG 1.1//EN" "http://www.w3.org/Graphics/SVG/1.1/DTD/svg11.dtd"><svg t="1626835314895" class="icon" viewBox="0 0 1024 1024" version="1.1" xmlns="http://www.w3.org/2000/svg" p-id="1160" xmlns:xlink="http://www.w3.org/1999/xlink" width="200" height="200"><defs><style type="text/css"></style></defs><path d="M868.571429 86.491429H133.302857c-20.297143 0-36.754286 16.457143-36.754286 36.754285v808.777143c0 10.971429 4.937143 21.394286 13.531429 28.342857 8.594286 6.948571 19.748571 9.874286 30.537143 7.68l360.411428-71.68 360.411429 71.68c2.377143 0.548571 4.754286 0.731429 7.131429 0.731429 8.411429 0 16.64-2.925714 23.405714-8.411429 8.594286-6.948571 13.531429-17.371429 13.531428-28.342857V123.245714a37.028571 37.028571 0 0 0-36.937142-36.754285zM682.605714 634.697143H319.085714v-73.508572h363.52v73.508572z m0-177.188572H319.085714V384h363.52v73.508571z"  p-id="1161"></path></svg>