<?xml version="1.0" standalone="no"?><!DOCTYPE svg PUBLIC "-//W3C//DTD SVG 1.1//EN" "http://www.w3.org/Graphics/SVG/1.1/DTD/svg11.dtd"><svg t="1626847643891" class="icon" viewBox="0 0 1024 1024" version="1.1" xmlns="http://www.w3.org/2000/svg" p-id="9364" xmlns:xlink="http://www.w3.org/1999/xlink" width="200" height="200"><defs><style type="text/css"></style></defs><path d="M928.666 542.157H511.488c-16.947 0-30.72-13.773-30.72-30.72V94.208c0-16.947 13.773-30.72 30.72-30.72 246.989 0 447.898 200.909 447.898 447.898a30.72 30.72 0 0 1-30.72 30.77z m-386.458-61.44h354.56c-14.9-188.672-165.888-339.61-354.56-354.56v354.56z"  p-id="9365"></path><path d="M511.488 959.334c-246.989 0-447.898-200.908-447.898-447.897 0-198.912 133.428-376.013 324.455-430.695 16.333-4.659 33.331 4.762 37.99 21.095 4.66 16.333-4.761 33.331-21.094 37.99-164.813 47.155-279.91 199.936-279.91 371.61 0 213.094 173.363 386.457 386.457 386.457 169.062 0 321.229-112.896 370.022-274.585a30.72 30.72 0 0 1 38.298-20.531c16.23 4.915 25.446 22.067 20.531 38.297-27.238 90.163-83.814 171.213-159.385 228.199-78.132 58.88-171.316 90.06-269.466 90.06z"  p-id="9366"></path></svg>