<?xml version="1.0" standalone="no"?><!DOCTYPE svg PUBLIC "-//W3C//DTD SVG 1.1//EN" "http://www.w3.org/Graphics/SVG/1.1/DTD/svg11.dtd"><svg t="1626838328354" class="icon" viewBox="0 0 1024 1024" version="1.1" xmlns="http://www.w3.org/2000/svg" p-id="7366" xmlns:xlink="http://www.w3.org/1999/xlink" width="200" height="200"><defs><style type="text/css"></style></defs><path d="M216.146676 114.741384c0 55.94461-45.370708 101.285327-101.290325 101.285327-55.914619 0-101.254336-45.340717-101.254336-101.285327C13.602015 58.786777 58.942732 13.446061 114.856351 13.446061c55.919617 0.001 101.290325 45.341716 101.290325 101.295323z"  p-id="7367"></path><path d="M114.856351 229.483768C51.598883 229.483768 0.149956 178.014847 0.149956 114.741384 0.149956 51.458924 51.598883 0 114.856351 0c63.277462 0 114.741384 51.458924 114.741384 114.741384 0.001 63.273463-51.462923 114.742384-114.741384 114.742384z m0-202.57965c-48.419815 0-87.798278 39.393459-87.798278 87.838266 0 48.43481 39.378463 87.828269 87.798278 87.828269 48.439809 0 87.838266-39.393459 87.838266-87.828269 0-48.445807-39.398457-87.838266-87.838266-87.838266z"  p-id="7368"></path><path d="M13.954912 858.069612h858.034622v86.708598H13.954912z"  p-id="7369"></path><path d="M871.989534 958.236267H13.954912c-7.428824 0-13.457058-6.028234-13.457058-13.457058v-86.708597c0-7.429823 6.028234-13.457058 13.457058-13.457057h858.034622c7.428824 0 13.452059 6.027234 13.452059 13.457057v86.708597c0 7.427824-6.024235 13.457058-13.452059 13.457058z m-844.582563-26.914115h831.125506v-59.805479H27.406971v59.805479z"  p-id="7370"></path><path d="M51.33696 944.779209h127.039781v65.762734H51.33696z"  p-id="7371"></path><path d="M178.376741 1023.999H51.33696c-7.428824 0-13.452059-6.028234-13.452059-13.457057v-65.762734c0-7.429823 6.022236-13.457058 13.452059-13.457057h127.039781c7.428824 0 13.457058 6.027234 13.457058 13.457057v65.762734c0 7.428824-6.028234 13.457058-13.457058 13.457057zM64.789019 997.084885h100.135663v-38.848618H64.789019v38.848618z"  p-id="7372"></path><path d="M721.053754 944.779209h127.039781v65.762734H721.053754z"  p-id="7373"></path><path d="M848.093535 1023.999H721.053754c-7.428824 0-13.457058-6.028234-13.457058-13.457057v-65.762734c0-7.429823 6.028234-13.457058 13.457058-13.457057h127.039781c7.429823 0 13.452059 6.027234 13.452059 13.457057v65.762734c0 7.428824-6.022236 13.457058-13.452059 13.457057z m-113.587722-26.914115h100.135663v-38.848618H734.505813v38.848618z"  p-id="7374"></path><path d="M114.856351 114.741384l46.706316 54.201121"  p-id="7375"></path><path d="M161.562667 182.389566c-3.769896 0-7.534793-1.572539-10.196013-4.67663l-46.706316-54.201121c-4.84858-5.624352-4.218764-14.111866 1.421583-18.971442 5.589362-4.84858 14.101869-4.23376 18.971442 1.421583l46.701318 54.201121c4.853578 5.624352 4.223763 14.121863-1.416585 18.970442a13.396075 13.396075 0 0 1-8.775429 3.256047z"  p-id="7376"></path><path d="M114.856351 858.069612V216.026711"  p-id="7377"></path><path d="M114.856351 871.515673c-7.428824 0-13.452059-6.027234-13.452059-13.446061V216.026711c0-7.428824 6.023235-13.457058 13.452059-13.457058s13.457058 6.028234 13.457057 13.457058v642.042901c0 7.418827-6.028234 13.446061-13.457057 13.446061z" p-id="7378"></path></svg>