<?xml version="1.0" standalone="no"?><!DOCTYPE svg PUBLIC "-//W3C//DTD SVG 1.1//EN" "http://www.w3.org/Graphics/SVG/1.1/DTD/svg11.dtd"><svg t="1626835557199" class="icon" viewBox="0 0 1024 1024" version="1.1" xmlns="http://www.w3.org/2000/svg" p-id="2158" xmlns:xlink="http://www.w3.org/1999/xlink" width="200" height="200"><defs><style type="text/css"></style></defs><path d="M960 0a64 64 0 0 1 64 64v213.333333a64 64 0 0 1-64 64h-21.333333v617.258667c0 33.536-25.002667 62.08-58.069334 65.152l-5.930666 0.256h-725.333334c-34.005333 0-60.842667-26.666667-63.744-59.562667l-0.256-5.845333V341.333333h-21.333333a64 64 0 0 1-63.701333-57.856l-0.298667-6.144v-213.333333a64 64 0 0 1 64-64z m-106.666667 341.333333h-682.666666v597.333334h682.666666v-597.333334z m85.333334-256h-853.333334v170.666667h853.333334v-170.666667z" p-id="2159"></path><path d="M341.333333 512m42.666667 0l256 0q42.666667 0 42.666667 42.666667l0 0q0 42.666667-42.666667 42.666666l-256 0q-42.666667 0-42.666667-42.666666l0 0q0-42.666667 42.666667-42.666667Z" p-id="2160"></path></svg>