<?xml version="1.0" standalone="no"?><!DOCTYPE svg PUBLIC "-//W3C//DTD SVG 1.1//EN" "http://www.w3.org/Graphics/SVG/1.1/DTD/svg11.dtd"><svg t="1626835049876" class="icon" viewBox="0 0 1024 1024" version="1.1" xmlns="http://www.w3.org/2000/svg" p-id="1000" xmlns:xlink="http://www.w3.org/1999/xlink" width="200" height="200"><defs><style type="text/css"></style></defs><path d="M931.39456 639.84128l-64.64512-38.77888-294.23104 176.54272c-16.82944 10.09664-38.33344 15.68256-60.5184 15.68256s-43.648-5.59104-60.5184-15.68256l-294.23104-176.54272-64.64512 38.77888c-21.07904 12.6464-21.07904 33.13152 0 45.7728l381.27104 228.75648c10.54208 6.31296 24.30976 9.48224 38.12352 9.48224 13.80864 0 27.58656-3.16416 38.12352-9.48224l381.27104-228.75648c21.07904-12.6464 21.07904-33.13152 0-45.7728z"  p-id="1001"></path><path d="M931.39456 465.75616l-64.64512-38.77888-294.23104 176.54784c-16.82944 10.09152-38.33344 15.68256-60.5184 15.68256s-43.648-5.59104-60.5184-15.68256L157.25056 426.97728l-64.64512 38.77888c-21.07904 12.6464-21.07904 33.13152 0 45.7728l381.27104 228.7616c10.54208 6.30784 24.30976 9.47712 38.12352 9.47712 13.80864 0 27.58656-3.16416 38.12352-9.47712l381.27104-228.7616c21.07904-12.64128 21.07904-33.1264 0-45.7728z"  p-id="1002"></path><path d="M931.39456 291.67616l-381.27104-228.77184c-10.54208-6.30784-24.31488-9.46688-38.12352-9.46688-13.81376 0-27.58656 3.15904-38.12352 9.46688L92.60544 291.67616c-21.07904 12.64128-21.07904 33.1264 0 45.76256l381.27104 228.77184c10.54208 6.30784 24.30976 9.47712 38.12352 9.47712 13.80864 0 27.58656-3.16416 38.12352-9.47712l381.27104-228.77184c21.07904-12.63616 21.07904-33.11616 0-45.76256z"  p-id="1003"></path></svg>