<?xml version="1.0" standalone="no"?><!DOCTYPE svg PUBLIC "-//W3C//DTD SVG 1.1//EN" "http://www.w3.org/Graphics/SVG/1.1/DTD/svg11.dtd"><svg t="1626835456003" class="icon" viewBox="0 0 1152 1024" version="1.1" xmlns="http://www.w3.org/2000/svg" p-id="1333" xmlns:xlink="http://www.w3.org/1999/xlink" width="225" height="200"><defs><style type="text/css"></style></defs><path d="M56.888889 56.888889h625.777778v312.433778h56.888889V45.539556A45.596444 45.596444 0 0 0 694.016 0H45.511111A45.596444 45.596444 0 0 0 0 45.539556V864.711111A45.596444 45.596444 0 0 0 45.539556 910.222222H279.324444v-56.888889H56.888889z"  p-id="1334"></path><path d="M170.666667 151.210667h398.222222v56.888889H170.666667zM170.666667 305.322667h398.222222v56.888889H170.666667zM398.222222 502.385778a28.444444 28.444444 0 0 0-40.248889 0L237.710222 622.648889a35.811556 35.811556 0 0 0 0 50.545778l120.263111 120.263111A28.444444 28.444444 0 0 0 398.222222 753.237333l-105.329778-105.301333L398.222222 542.606222a28.444444 28.444444 0 0 0 0-40.220444zM844.458667 622.648889l-120.263111-120.263111a28.444444 28.444444 0 0 0-40.220445 40.220444l105.329778 105.301334-105.329778 105.329777a28.444444 28.444444 0 1 0 40.220445 40.220445l120.32-120.32a35.811556 35.811556 0 0 0-0.056889-50.488889zM606.890667 428.117333a28.444444 28.444444 0 0 0-34.816 20.110223l-103.082667 384.654222a28.444444 28.444444 0 1 0 54.954667 14.734222l103.054222-384.654222a28.444444 28.444444 0 0 0-20.110222-34.844445z"  p-id="1335"></path></svg>