<?xml version="1.0" standalone="no"?><!DOCTYPE svg PUBLIC "-//W3C//DTD SVG 1.1//EN" "http://www.w3.org/Graphics/SVG/1.1/DTD/svg11.dtd"><svg t="1626835660657" class="icon" viewBox="0 0 1024 1024" version="1.1" xmlns="http://www.w3.org/2000/svg" p-id="2769" xmlns:xlink="http://www.w3.org/1999/xlink" width="200" height="200"><defs><style type="text/css"></style></defs><path d="M909.1 971.8H114.9c-34.6 0-62.7-28.1-62.7-62.7V114.9c0-34.6 28.1-62.7 62.7-62.7H909c34.6 0 62.7 28.1 62.7 62.7V909c0.1 34.6-28.1 62.8-62.6 62.8zM114.9 94c-11.5 0-20.9 9.4-20.9 20.9V909c0 11.5 9.4 20.9 20.9 20.9H909c11.5 0 20.9-9.4 20.9-20.9V114.9c0-11.5-9.4-20.9-20.9-20.9H114.9z"  p-id="2770"></path><path d="M418 498c-6.3 0-12.3-2.8-16.4-7.9L271.7 326v151.1c0 11.5-9.4 20.9-20.9 20.9-11.5 0-20.9-9.4-20.9-20.9V265.9c0-8.9 5.6-16.8 14-19.7 8.4-3 17.7-0.2 23.3 6.8l129.9 164V265.9c0-11.5 9.4-20.9 20.9-20.9 11.5 0 20.9 9.4 20.9 20.9v211.2c0 8.9-5.6 16.8-14 19.7-2.3 0.8-4.6 1.2-6.9 1.2zM626.9 496.9c-69.1 0-125.4-56.2-125.4-125.4s56.2-125.4 125.4-125.4 125.4 56.2 125.4 125.4-56.2 125.4-125.4 125.4z m0-209c-46.1 0-83.6 37.5-83.6 83.6s37.5 83.6 83.6 83.6 83.6-37.5 83.6-83.6-37.5-83.6-83.6-83.6zM783.7 809.8H240.3c-11.5 0-20.9-9.3-20.9-20.9s9.4-20.9 20.9-20.9h543.3c11.6 0 20.9 9.3 20.9 20.9s-9.3 20.9-20.8 20.9z"  p-id="2771"></path><path d="M783.7 485.9m-20.9 0a20.9 20.9 0 1 0 41.8 0 20.9 20.9 0 1 0-41.8 0Z"  p-id="2772"></path></svg>